<svg width="512" height="512" viewBox="0 0 512 512" fill="none" xmlns="http://www.w3.org/2000/svg">
<path d="M462.898 512H50.2383C45.918 512 41.8047 510.168 38.9141 506.957C36.0234 503.75 34.6328 499.465 35.082 495.172L73.9961 124.598C74.8125 116.84 81.3516 110.949 89.1523 110.949H423.984C431.781 110.949 438.324 116.84 439.137 124.598L478.051 495.172C478.504 499.465 477.109 503.75 474.223 506.957C471.328 510.168 467.215 512 462.898 512Z" fill="#1D4ED8"/>
<path d="M439.137 124.598C438.324 116.84 431.781 110.949 423.984 110.949H256.562V512H462.898C467.215 512 471.332 510.168 474.219 506.957C477.109 503.75 478.504 499.465 478.051 495.172L439.137 124.598Z" fill="#3B82F6"/>
<path d="M335.605 190.242C327.188 190.242 320.367 183.422 320.367 175.004V94.2734C320.367 59.0977 291.746 30.4766 256.566 30.4766C221.387 30.4766 192.77 59.0977 192.77 94.2734V175.008C192.77 183.422 185.945 190.246 177.531 190.246C169.113 190.246 162.293 183.422 162.293 175.008V94.2734C162.293 42.293 204.582 0 256.566 0C308.551 0 350.844 42.293 350.844 94.2734V175.008C350.844 183.422 344.02 190.242 335.605 190.242V190.242Z" fill="#555A66"/>
<path d="M256.566 0C256.566 0 256.566 0 256.562 0V30.4766H256.566C291.746 30.4766 320.367 59.0977 320.367 94.2734V175.008C320.367 183.422 327.188 190.246 335.605 190.246C344.02 190.246 350.844 183.422 350.844 175.008V94.2734C350.844 42.293 308.551 0 256.566 0Z" fill="#23272B"/>
</svg>
